<svg width="1216" height="72" viewBox="0 0 1216 72" fill="none" xmlns="http://www.w3.org/2000/svg">
<path d="M591.875 35.2498C592.911 35.2498 593.75 34.4104 593.75 33.375V33.375C593.75 32.3395 592.911 31.5001 591.875 31.5001V31.5001C590.84 31.5001 590 32.3396 590 33.3751V35.2498H591.875ZM586.625 35.2498C587.661 35.2498 588.5 34.4103 588.5 33.3748V28.1251C588.5 27.0896 587.661 26.2501 586.625 26.2501V26.2501C585.589 26.2501 584.75 27.0896 584.75 28.1251V33.3748C584.75 34.4103 585.589 35.2498 586.625 35.2498V35.2498Z" fill="#2EB67D"/>
<path d="M576.125 36.7502C575.089 36.7502 574.25 37.5896 574.25 38.625V38.625C574.25 39.6605 575.089 40.4999 576.125 40.4999V40.4999C577.16 40.4999 578 39.6604 578 38.6249V36.7502H576.125ZM581.375 36.7502C580.339 36.7502 579.5 37.5897 579.5 38.6252V43.8749C579.5 44.9104 580.339 45.7499 581.375 45.7499V45.7499C582.411 45.7499 583.25 44.9104 583.25 43.8749V38.6252C583.25 37.5897 582.411 36.7502 581.375 36.7502V36.7502Z" fill="#E01E5A"/>
<path d="M584.75 43.8752C584.75 44.9106 585.59 45.75 586.625 45.75V45.75C587.66 45.75 588.5 44.9105 588.5 43.8751V43.8751C588.5 42.8395 587.66 42 586.625 42L584.75 42L584.75 43.8752ZM584.75 38.625C584.75 39.6605 585.59 40.5 586.625 40.5L591.875 40.5C592.91 40.5 593.75 39.6605 593.75 38.625V38.625C593.75 37.5895 592.91 36.75 591.875 36.75L586.625 36.75C585.59 36.75 584.75 37.5895 584.75 38.625V38.625Z" fill="#ECB22E"/>
<path d="M583.25 28.1248C583.25 27.0894 582.41 26.25 581.375 26.25V26.25C580.34 26.25 579.5 27.0895 579.5 28.1249V28.1249C579.5 29.1605 580.34 30 581.375 30L583.25 30L583.25 28.1248ZM583.25 33.375C583.25 32.3395 582.41 31.5 581.375 31.5L576.125 31.5C575.09 31.5 574.25 32.3395 574.25 33.375V33.375C574.25 34.4105 575.09 35.25 576.125 35.25L581.375 35.25C582.41 35.25 583.25 34.4105 583.25 33.375V33.375Z" fill="#36C5F0"/>
</svg>
