<svg width="1440" height="160" viewBox="0 0 1440 160" fill="none" xmlns="http://www.w3.org/2000/svg" xmlns:xlink="http://www.w3.org/1999/xlink">
<rect width="1440" height="160" fill="white"/>
<path d="M118.116 103.16V103.069L127.065 90.513V87.6681H113.72V91.0043H122.125V91.0949L113.358 103.573V106.483H127.091V103.16H118.116ZM138.392 93.5517V99.8233C138.392 101.026 138.108 101.957 137.565 102.604C137.009 103.263 136.323 103.586 135.522 103.586C134.694 103.586 134.099 103.354 133.737 102.888C133.375 102.422 133.207 101.595 133.207 100.431V93.5517H129.741V101.336C129.741 102.306 129.845 103.134 130.078 103.832C130.31 104.53 130.634 105.086 131.073 105.5C131.513 105.914 132.004 106.224 132.573 106.418C133.129 106.612 133.776 106.703 134.5 106.703C135.237 106.703 135.935 106.56 136.595 106.25C137.254 105.94 137.836 105.5 138.341 104.905H138.392V106.483H141.858V93.5517H138.392ZM152.668 93.3319C151.892 93.3319 151.181 93.5259 150.509 93.8879C149.836 94.2501 149.254 94.7802 148.763 95.4526H148.724V93.5517H145.259V106.483H148.724V100.483C148.724 99.5001 149.009 98.6854 149.591 98.0518C150.172 97.4311 150.987 97.1078 152.022 97.1078C152.28 97.1078 152.591 97.1207 152.94 97.1466V93.3449C152.888 93.3449 152.797 93.3319 152.668 93.3319ZM157.078 91.7285C157.66 91.7285 158.164 91.5216 158.591 91.1078C159.004 90.694 159.224 90.2026 159.224 89.6078C159.224 89.0388 159.004 88.5345 158.591 88.1207C158.164 87.7069 157.66 87.5 157.078 87.5C156.483 87.5 155.966 87.7069 155.552 88.1207C155.138 88.5345 154.931 89.0388 154.931 89.6078C154.931 89.9957 155.022 90.3578 155.216 90.6811C155.397 91.0043 155.655 91.2629 155.991 91.444C156.328 91.638 156.69 91.7285 157.078 91.7285ZM155.345 106.483H158.81V93.5517H155.345V106.483ZM176.875 106.483H180.625V87.6681H176.875V106.483ZM192.224 93.3319C191.422 93.3319 190.66 93.5001 189.935 93.8233C189.211 94.1466 188.591 94.6121 188.073 95.2199H188.034V93.5517H184.569V106.483H188.034V99.9785C188.034 98.8534 188.293 97.9871 188.823 97.3664C189.354 96.7587 190.065 96.4483 190.97 96.4483C191.81 96.4483 192.431 96.694 192.845 97.1724C193.246 97.6638 193.453 98.4914 193.453 99.681V106.496H196.918V98.8147C196.918 97.8449 196.802 97.0044 196.582 96.2802C196.349 95.569 196.026 95.0001 195.599 94.5733C195.172 94.1595 194.681 93.8492 194.125 93.6423C193.569 93.4354 192.935 93.3319 192.224 93.3319ZM204.263 106.703C205.052 106.703 205.698 106.638 206.203 106.496C206.694 106.366 207.198 106.159 207.69 105.888L206.797 103.121C206.203 103.431 205.66 103.573 205.168 103.573C204.754 103.573 204.47 103.444 204.289 103.172C204.108 102.914 204.03 102.487 204.03 101.918V96.4224H207.547V93.5517H204.03V88.9483L200.565 89.3233V93.5517H199.039V96.4224H200.565V102.397C200.565 103.819 200.888 104.892 201.547 105.616C202.207 106.341 203.112 106.703 204.263 106.703ZM221.526 99.9009C221.526 98.6465 221.254 97.5216 220.737 96.5259C220.207 95.5302 219.457 94.7544 218.5 94.1854C217.53 93.6164 216.418 93.3319 215.177 93.3319C214.272 93.3319 213.418 93.5001 212.629 93.8233C211.828 94.1595 211.155 94.6121 210.586 95.194C210.017 95.7759 209.578 96.4871 209.254 97.3147C208.918 98.1423 208.763 99.0474 208.763 100.004C208.763 101.323 209.047 102.5 209.629 103.522C210.211 104.556 211.013 105.345 212.022 105.888C213.03 106.431 214.155 106.703 215.422 106.703C216.664 106.703 217.75 106.483 218.707 106.043C219.651 105.603 220.414 105.009 221.009 104.259L218.759 102.164C217.944 103.147 216.909 103.638 215.668 103.625C214.841 103.625 214.129 103.392 213.547 102.953C212.966 102.513 212.578 101.918 212.371 101.142H221.435C221.487 100.935 221.526 100.522 221.526 99.9009ZM215.293 96.3837C216.017 96.3837 216.625 96.5906 217.103 96.9914C217.569 97.3923 217.905 97.9483 218.086 98.6465H212.384C212.578 97.9225 212.927 97.3535 213.444 96.9656C213.961 96.5776 214.569 96.3837 215.293 96.3837ZM231.702 93.3319C230.926 93.3319 230.216 93.5259 229.543 93.8879C228.871 94.2501 228.289 94.7802 227.797 95.4526H227.758V93.5517H224.294V106.483H227.758V100.483C227.758 99.5001 228.043 98.6854 228.625 98.0518C229.207 97.4311 230.022 97.1078 231.057 97.1078C231.315 97.1078 231.625 97.1207 231.975 97.1466V93.3449C231.923 93.3449 231.832 93.3319 231.702 93.3319ZM241.879 93.3319C241.078 93.3319 240.315 93.5001 239.591 93.8233C238.867 94.1466 238.246 94.6121 237.728 95.2199H237.689V93.5517H234.225V106.483H237.689V99.9785C237.689 98.8534 237.949 97.9871 238.478 97.3664C239.009 96.7587 239.72 96.4483 240.625 96.4483C241.465 96.4483 242.087 96.694 242.5 97.1724C242.901 97.6638 243.107 98.4914 243.107 99.681V106.496H246.573V98.8147C246.573 97.8449 246.457 97.0044 246.237 96.2802C246.004 95.569 245.681 95.0001 245.255 94.5733C244.828 94.1595 244.337 93.8492 243.78 93.6423C243.224 93.4354 242.591 93.3319 241.879 93.3319ZM254.073 106.703C255.702 106.703 256.943 106.341 257.798 105.591C258.651 104.853 259.091 103.884 259.091 102.681C259.091 102.371 259.064 102.073 259.012 101.815C258.845 100.961 258.34 100.263 257.513 99.7457C257.022 99.4354 256.065 99.0216 254.643 98.4914C253.956 98.2328 253.465 98 253.155 97.7931C252.845 97.5862 252.703 97.3535 252.703 97.0949C252.703 96.7845 252.832 96.5518 253.09 96.3837C253.35 96.2155 253.633 96.1251 253.97 96.1251C254.461 96.1251 254.978 96.2415 255.521 96.4742C256.065 96.7069 256.569 97.0431 257.06 97.4958L258.741 94.9612C258.004 94.3923 257.255 93.9785 256.504 93.7199C255.742 93.4612 254.914 93.3319 254.008 93.3319C253.129 93.3319 252.328 93.5001 251.629 93.8104C250.931 94.1337 250.375 94.5863 249.961 95.1811C249.547 95.7759 249.354 96.4483 249.354 97.2113C249.354 97.6251 249.393 98 249.495 98.3363C249.587 98.6854 249.728 98.9957 249.909 99.2543C250.091 99.5259 250.297 99.7716 250.53 99.9785C250.763 100.198 251.035 100.392 251.358 100.573C251.668 100.754 251.978 100.897 252.289 101.026C252.599 101.155 252.948 101.285 253.336 101.414C253.944 101.621 254.397 101.776 254.707 101.905C255.017 102.035 255.25 102.177 255.431 102.332C255.599 102.487 255.69 102.655 255.69 102.849C255.69 103.172 255.548 103.431 255.263 103.625C254.978 103.832 254.591 103.922 254.099 103.922C252.78 103.922 251.591 103.418 250.517 102.41L248.836 104.802C250.272 106.069 252.018 106.703 254.073 106.703ZM269.487 93.3319C268.647 93.3319 267.871 93.4872 267.147 93.7845C266.422 94.0948 265.802 94.5345 265.284 95.1164H265.233V86.9828H261.768V106.483H265.233V99.9268C265.233 98.7888 265.492 97.9354 266.035 97.3405C266.564 96.7457 267.302 96.4483 268.258 96.4483C269.112 96.4483 269.746 96.694 270.159 97.1595C270.573 97.638 270.781 98.4527 270.781 99.5905V106.496H274.259V98.7112C274.259 97.7543 274.142 96.9138 273.909 96.2155C273.677 95.5173 273.341 94.9483 272.914 94.5345C272.475 94.1208 271.982 93.8233 271.414 93.6294C270.845 93.4354 270.211 93.3319 269.487 93.3319ZM279.457 91.7285C280.039 91.7285 280.543 91.5216 280.97 91.1078C281.384 90.694 281.603 90.2026 281.603 89.6078C281.603 89.0388 281.384 88.5345 280.97 88.1207C280.543 87.7069 280.039 87.5 279.457 87.5C278.862 87.5 278.345 87.7069 277.931 88.1207C277.517 88.5345 277.31 89.0388 277.31 89.6078C277.31 89.9957 277.401 90.3578 277.595 90.6811C277.775 91.0043 278.035 91.2629 278.37 91.444C278.707 91.638 279.069 91.7285 279.457 91.7285ZM277.725 106.483H281.19V93.5517H277.725V106.483ZM292.298 93.3319C290.643 93.3319 289.336 93.9009 288.38 95.0388H288.328V93.5517H284.862V111.72H288.328V105.035H288.38C289.298 106.147 290.564 106.703 292.194 106.703C293.074 106.703 293.901 106.547 294.664 106.224C295.426 105.914 296.086 105.461 296.629 104.892C297.172 104.323 297.612 103.612 297.922 102.784C298.232 101.957 298.388 101.039 298.388 100.056C298.388 99.2803 298.284 98.5561 298.091 97.8578C297.884 97.1595 297.599 96.5388 297.237 95.9957C296.875 95.4526 296.436 94.9742 295.944 94.5733C295.439 94.1725 294.871 93.8621 294.25 93.6552C293.63 93.4483 292.97 93.3319 292.298 93.3319ZM291.561 103.599C290.926 103.599 290.358 103.457 289.841 103.172C289.323 102.888 288.923 102.461 288.625 101.918C288.328 101.375 288.185 100.767 288.185 100.069C288.185 99.5647 288.263 99.0863 288.431 98.6336C288.599 98.194 288.832 97.806 289.129 97.4828C289.414 97.1724 289.775 96.9138 290.189 96.7328C290.603 96.5518 291.069 96.4483 291.561 96.4483C292.504 96.4483 293.293 96.7845 293.927 97.444C294.548 98.1164 294.871 98.9828 294.871 100.069C294.871 101.116 294.56 101.97 293.94 102.616C293.319 103.276 292.53 103.599 291.561 103.599Z" fill="black"/>
<path d="M168.222 106.886C169.289 106.886 170.213 106.507 170.972 105.748C171.731 104.989 172.134 104.088 172.134 103.022C172.134 101.979 171.731 101.054 170.972 100.295C170.213 99.5368 169.289 99.1337 168.222 99.1337C167.108 99.1337 166.159 99.513 165.401 100.272C164.642 101.03 164.263 101.955 164.263 103.022C164.263 104.112 164.642 105.013 165.401 105.772C166.159 106.53 167.108 106.886 168.222 106.886Z" fill="#E7332B"/>

</svg>
